<svg width="222.2" height="73.6" viewBox="0 0 222.2 73.6" xmlns="http://www.w3.org/2000/svg"><g id="svgGroup" stroke-linecap="round" fill-rule="evenodd" font-size="9pt" stroke="#000" stroke-width="0.25mm" fill="black" style="stroke:#000;stroke-width:0.25mm;fill:black"><path d="M 49.6 73.6 L 36.7 73.6 L 21.9 45.8 A 233.913 233.913 0 0 1 18.066 45.937 Q 16.31 45.984 14.732 45.996 A 137.33 137.33 0 0 1 13.7 46 L 10.9 46 L 10.9 73.6 L 0 73.6 L 0 0.1 L 16.7 0.1 A 50.558 50.558 0 0 1 25.592 0.838 Q 32.475 2.069 37.6 5.35 Q 45.8 10.6 45.8 22.4 A 26.586 26.586 0 0 1 45.048 28.862 A 20.834 20.834 0 0 1 42.35 35.15 A 20.565 20.565 0 0 1 35.842 41.462 A 27.144 27.144 0 0 1 32.1 43.4 L 49.6 73.6 Z M 130 0 L 131.1 0 L 166.5 73.6 L 153.6 73.6 L 147.3 59.2 L 113.6 59.2 L 107.3 73.6 L 94.8 73.6 L 130 0 Z M 172.7 73.6 L 172.7 0.1 L 191.4 0.1 A 73.799 73.799 0 0 1 198.224 0.391 Q 208.419 1.342 212.4 5.4 A 17.604 17.604 0 0 1 217.6 18.141 A 21.528 21.528 0 0 1 217.6 18.2 Q 217.6 23.2 215.4 27.65 A 13.947 13.947 0 0 1 208.844 34.089 A 17.492 17.492 0 0 1 208.4 34.3 A 24.622 24.622 0 0 1 212.929 35.899 Q 215.565 37.153 217.421 38.968 A 13.825 13.825 0 0 1 218.85 40.6 A 16.945 16.945 0 0 1 222.159 49.873 A 21.299 21.299 0 0 1 222.2 51.2 A 34.707 34.707 0 0 1 221.789 56.671 A 25.162 25.162 0 0 1 220.2 62.4 A 13.18 13.18 0 0 1 216.994 66.925 Q 214.952 68.85 211.9 70.4 Q 205.6 73.6 193.7 73.6 L 172.7 73.6 Z M 61 73.6 L 61 0.1 L 72.3 0.1 L 72.3 63.6 L 93.4 63.6 L 93.4 73.6 L 61 73.6 Z M 183.7 64.2 L 195.2 64.2 A 35.401 35.401 0 0 0 199.319 63.979 Q 203.592 63.476 206.002 61.83 A 7.446 7.446 0 0 0 207.45 60.55 A 12.798 12.798 0 0 0 210.391 54.058 A 17.519 17.519 0 0 0 210.6 51.3 A 12.467 12.467 0 0 0 210.135 47.801 A 9.211 9.211 0 0 0 207 43.1 Q 204.415 41.018 199.923 40.431 A 29.575 29.575 0 0 0 196.1 40.2 L 183.7 40.2 L 183.7 64.2 Z M 10.9 36.9 L 18 36.9 Q 26.419 36.9 30.299 33.763 A 8.824 8.824 0 0 0 31.45 32.65 A 15.031 15.031 0 0 0 35.099 22.684 A 18.948 18.948 0 0 0 35.1 22.5 A 13.738 13.738 0 0 0 33.865 16.465 Q 31.068 10.676 21.934 9.63 A 38.207 38.207 0 0 0 17.6 9.4 L 10.9 9.4 L 10.9 36.9 Z M 130.5 21.3 L 126.1 31.3 L 118.1 49.1 L 142.9 49.1 L 135 31.4 L 130.7 21.3 L 130.5 21.3 Z M 183.7 31.3 L 193.2 31.3 Q 200.3 31.3 203.3 27.85 Q 206.3 24.4 206.3 19.1 A 9.195 9.195 0 0 0 205.171 14.415 Q 203.023 10.707 196.787 9.854 A 30.297 30.297 0 0 0 192.7 9.6 L 183.7 9.6 L 183.7 31.3 Z" vector-effect="non-scaling-stroke"/></g></svg>