<svg width="91.601" height="66.001" viewBox="0 0 91.601 66.001" xmlns="http://www.w3.org/2000/svg"><g id="svgGroup" stroke-linecap="round" fill-rule="evenodd" font-size="9pt" stroke="#FFF" stroke-width="0.25mm" fill="white" style="stroke:#FFF;stroke-width:0.25mm;fill:white"><path d="M 50.936 65.442 A 7.796 7.796 0 0 0 52.9 65.701 A 16.938 16.938 0 0 0 53.58 65.687 Q 55.03 65.629 56.269 65.318 A 9.077 9.077 0 0 0 59.4 63.901 A 9.43 9.43 0 0 0 60.039 63.399 Q 60.691 62.838 61.114 62.242 A 3.98 3.98 0 0 0 61.9 59.901 A 3.735 3.735 0 0 0 61.311 57.91 A 5.588 5.588 0 0 0 60.5 56.901 Q 58.5 55.001 57.85 52.351 Q 57.484 50.86 57.324 49.101 A 32.08 32.08 0 0 1 57.2 46.201 Q 57.2 42.201 57.65 37.351 Q 58.1 32.501 58.7 27.501 Q 59.8 19.101 60.1 12.501 Q 62.4 11.901 64.7 11.551 A 32.626 32.626 0 0 1 64.844 11.529 A 29.811 29.811 0 0 1 69.2 11.201 A 24.482 24.482 0 0 1 69.505 11.203 Q 75.297 11.275 79 14.101 A 9.243 9.243 0 0 1 82.22 18.452 A 10.98 10.98 0 0 1 82.8 22.101 A 13.456 13.456 0 0 1 82.787 22.706 A 10.157 10.157 0 0 1 79.35 30.101 A 11.659 11.659 0 0 1 74.384 32.728 A 15.934 15.934 0 0 1 70.4 33.201 A 19.426 19.426 0 0 1 70.311 33.201 Q 69.649 33.198 69.055 33.149 A 11.838 11.838 0 0 1 67.9 33.001 A 236.833 236.833 0 0 0 67.412 32.913 Q 66.905 32.822 66.531 32.757 A 60.538 60.538 0 0 0 66.2 32.701 Q 65.6 32.501 65 32.401 A 12.544 12.544 0 0 0 64.746 32.361 Q 64.482 32.323 64.292 32.309 A 2.668 2.668 0 0 0 64.1 32.301 A 2.157 2.157 0 0 0 63.952 32.306 Q 62.878 32.38 62.55 33.551 A 9.031 9.031 0 0 0 62.311 34.692 A 11.221 11.221 0 0 0 62.2 36.301 A 12.587 12.587 0 0 0 62.268 37.642 Q 62.367 38.567 62.611 39.33 A 5.422 5.422 0 0 0 63.5 41.051 A 3.156 3.156 0 0 0 63.944 41.509 Q 65.356 42.701 68.5 42.701 Q 72.4 42.701 76.45 40.951 A 24.253 24.253 0 0 0 78.193 40.113 A 26.495 26.495 0 0 0 83.95 35.951 Q 87.4 32.701 89.5 28.301 Q 91.6 23.901 91.6 18.701 A 23.276 23.276 0 0 0 91.54 17.009 A 16.773 16.773 0 0 0 85.75 5.101 A 18.821 18.821 0 0 0 85.042 4.514 Q 81.556 1.762 76.804 0.688 A 29.944 29.944 0 0 0 70.2 0.001 Q 65.3 0.001 60.55 1.251 Q 55.8 2.501 52.3 4.401 A 27.186 27.186 0 0 0 51.999 4.562 Q 48.643 6.388 47.35 8.351 A 7.934 7.934 0 0 0 46.231 11.079 A 11.063 11.063 0 0 0 46 13.401 A 10.842 10.842 0 0 0 46.02 14.079 Q 46.185 16.701 47.7 16.701 A 3.1 3.1 0 0 0 48.273 16.646 A 3.886 3.886 0 0 0 48.95 16.451 A 8.743 8.743 0 0 0 49.528 16.203 A 10.895 10.895 0 0 0 50.3 15.801 Q 50.6 18.001 50.7 20.301 Q 50.8 22.601 50.8 24.601 Q 50.8 29.701 50.35 34.701 A 165.172 165.172 0 0 1 50.093 37.322 A 142.821 142.821 0 0 1 49.2 44.201 Q 48.5 48.601 48.05 52.451 Q 47.6 56.301 47.6 58.801 Q 47.6 60.908 47.97 62.276 A 5.365 5.365 0 0 0 48.4 63.401 A 6.053 6.053 0 0 0 48.505 63.59 Q 49.281 64.927 50.45 65.301 A 9.079 9.079 0 0 0 50.936 65.442 Z M 14.444 65.862 A 49.728 49.728 0 0 0 18.3 66.001 Q 25.125 66.001 30.168 64.664 A 24.412 24.412 0 0 0 35.9 62.401 A 11.949 11.949 0 0 0 38 61.032 A 6.903 6.903 0 0 0 40.7 55.501 Q 40.7 53.501 39.9 52.401 Q 39.494 51.842 39.062 51.567 A 1.585 1.585 0 0 0 38.2 51.301 Q 38.013 51.301 37.786 51.34 A 3.947 3.947 0 0 0 37.5 51.401 A 4.969 4.969 0 0 0 37.386 51.431 Q 37.211 51.479 37.018 51.545 A 8.85 8.85 0 0 0 36.6 51.701 Q 32.9 53.301 29 54.051 A 39.629 39.629 0 0 1 27.399 54.325 A 44.419 44.419 0 0 1 20.8 54.801 A 38.659 38.659 0 0 1 20.403 54.799 Q 17.972 54.774 16.238 54.44 A 10.767 10.767 0 0 1 14.6 54.001 A 6.791 6.791 0 0 1 14.532 53.976 A 5.319 5.319 0 0 1 11.45 51.151 A 6.715 6.715 0 0 1 11.252 50.676 Q 10.738 49.298 10.575 47.197 A 27.248 27.248 0 0 1 10.5 45.101 A 42.039 42.039 0 0 1 10.509 44.271 Q 10.559 41.742 10.9 37.901 A 195.857 195.857 0 0 1 11.189 34.922 Q 11.55 31.463 12.1 27.201 A 688.054 688.054 0 0 0 12.179 26.569 Q 12.92 20.594 13.3 16.651 A 184.999 184.999 0 0 0 13.329 16.344 Q 13.7 12.43 13.7 10.601 A 54.987 54.987 0 0 0 13.692 9.656 Q 13.618 5.34 12.85 2.901 A 3.757 3.757 0 0 0 11.903 1.302 Q 10.771 0.201 8.6 0.201 Q 6.8 0.201 4.8 1.101 Q 2.8 2.001 1.4 3.301 A 6.552 6.552 0 0 0 0.742 4.001 Q 0.43 4.39 0.249 4.771 A 2.387 2.387 0 0 0 0 5.801 Q 0 6.088 0.155 6.505 A 4.934 4.934 0 0 0 0.3 6.851 Q 0.6 7.501 1 8.101 A 21.03 21.03 0 0 1 1.202 8.439 A 18.237 18.237 0 0 1 3.65 15.651 A 57.208 57.208 0 0 1 3.836 17.593 Q 3.971 19.287 4.037 21.233 A 117.484 117.484 0 0 1 4.1 25.201 A 85.385 85.385 0 0 1 4.064 27.641 Q 3.847 35.248 2.3 44.701 Q 1.9 47.601 1.6 49.851 Q 1.3 52.101 1.3 53.901 A 16.645 16.645 0 0 0 1.54 56.793 A 12.159 12.159 0 0 0 2.7 60.301 Q 3.619 62.073 5.528 63.328 A 13.056 13.056 0 0 0 7.8 64.501 A 13.3 13.3 0 0 0 8.359 64.713 Q 10.802 65.577 14.444 65.862 Z" vector-effect="non-scaling-stroke"/></g></svg>